<svg width="15" height="15" viewBox="0 0 15 15" fill="none" xmlns="http://www.w3.org/2000/svg">
<path d="M5.16723 7.5C5.16723 6.21139 6.21162 5.16648 7.50028 5.16648C8.78895 5.16648 9.8339 6.21139 9.8339 7.5C9.8339 8.78861 8.78895 9.83352 7.50028 9.83352C6.21162 9.83352 5.16723 8.78861 5.16723 7.5ZM3.90571 7.5C3.90571 9.48522 5.51498 11.0944 7.50028 11.0944C9.48558 11.0944 11.0949 9.48522 11.0949 7.5C11.0949 5.51478 9.48558 3.90557 7.50028 3.90557C5.51498 3.90557 3.90571 5.51478 3.90571 7.5ZM10.3971 3.76309C10.3971 4.22674 10.7731 4.60331 11.2373 4.60331C11.701 4.60331 12.0776 4.22674 12.0776 3.76309C12.0776 3.29943 11.7016 2.92342 11.2373 2.92342C10.7731 2.92342 10.3971 3.29943 10.3971 3.76309ZM4.6719 13.1978C3.9894 13.1667 3.61846 13.0531 3.37193 12.9569C3.04509 12.8297 2.81213 12.6782 2.56672 12.4334C2.32188 12.1885 2.16978 11.9556 2.04312 11.6288C1.94699 11.3822 1.83333 11.0113 1.80223 10.3288C1.76831 9.59095 1.76152 9.36931 1.76152 7.5C1.76152 5.63069 1.76887 5.40961 1.80223 4.67116C1.83333 3.98869 1.94755 3.61834 2.04312 3.37124C2.17034 3.04443 2.32188 2.81147 2.56672 2.56607C2.81156 2.32124 3.04453 2.16914 3.37193 2.04249C3.61846 1.94636 3.9894 1.83271 4.6719 1.80162C5.40981 1.76769 5.63147 1.7609 7.50028 1.7609C9.36966 1.7609 9.59076 1.76826 10.3292 1.80162C11.0117 1.83271 11.3821 1.94693 11.6292 2.04249C11.956 2.16914 12.189 2.32124 12.4344 2.56607C12.6792 2.8109 12.8308 3.04443 12.958 3.37124C13.0541 3.61777 13.1678 3.98869 13.1989 4.67116C13.2328 5.40961 13.2396 5.63069 13.2396 7.5C13.2396 9.36874 13.2328 9.59039 13.1989 10.3288C13.1678 11.0113 13.0536 11.3822 12.958 11.6288C12.8308 11.9556 12.6792 12.1885 12.4344 12.4334C12.1896 12.6782 11.956 12.8297 11.6292 12.9569C11.3827 13.0531 11.0117 13.1667 10.3292 13.1978C9.59132 13.2317 9.36966 13.2385 7.50028 13.2385C5.63147 13.2385 5.40981 13.2317 4.6719 13.1978ZM4.61422 0.542407C3.86896 0.576333 3.36005 0.694507 2.91504 0.867528C2.45476 1.0462 2.0646 1.28595 1.67501 1.67496C1.28598 2.06397 1.04623 2.45412 0.867543 2.91494C0.694515 3.35994 0.576336 3.86882 0.542409 4.61405C0.507916 5.36042 0.5 5.59903 0.5 7.5C0.5 9.40097 0.507916 9.63958 0.542409 10.3859C0.576336 11.1312 0.694515 11.6401 0.867543 12.0851C1.04623 12.5453 1.28541 12.936 1.67501 13.325C2.06404 13.7141 2.4542 13.9532 2.91504 14.1325C3.36062 14.3055 3.86896 14.4237 4.61422 14.4576C5.36118 14.4915 5.59924 14.5 7.50028 14.5C9.40189 14.5 9.63995 14.4921 10.3863 14.4576C11.1316 14.4237 11.6405 14.3055 12.0855 14.1325C12.5458 13.9532 12.936 13.7141 13.3256 13.325C13.7146 12.936 13.9538 12.5453 14.133 12.0851C14.3061 11.6401 14.4248 11.1312 14.4582 10.3859C14.4921 9.63901 14.5 9.40097 14.5 7.5C14.5 5.59903 14.4921 5.36042 14.4582 4.61405C14.4242 3.86882 14.3061 3.35994 14.133 2.91494C13.9538 2.45468 13.7146 2.06454 13.3256 1.67496C12.9365 1.28595 12.5458 1.0462 12.0861 0.867528C11.6405 0.694507 11.1316 0.575767 10.3869 0.542407C9.64051 0.508481 9.40189 0.5 7.50085 0.5C5.59924 0.5 5.36118 0.507916 4.61422 0.542407Z" fill="#A6A6A6"/>
</svg>
