<svg width="21" height="13" viewBox="0 0 21 13" fill="none" xmlns="http://www.w3.org/2000/svg">
<path fill-rule="evenodd" clip-rule="evenodd" d="M20.0395 1.30526C20.1802 0.831579 20.0395 0.5 19.383 0.5H17.1946C16.6318 0.5 16.3817 0.8 16.241 1.13158C16.241 1.13158 15.1312 3.87895 13.5524 5.64737C13.0366 6.16842 12.8177 6.32632 12.5363 6.32632C12.3957 6.32632 12.1924 6.16842 12.1924 5.69474V1.30526C12.1924 0.736842 12.0361 0.5 11.5672 0.5H8.12823C7.78433 0.5 7.56549 0.768421 7.56549 1.00526C7.56549 1.5421 8.34707 1.66842 8.44086 3.15263V6.40526C8.44086 7.11579 8.31581 7.2421 8.03444 7.2421C7.29975 7.2421 5.48648 4.49474 4.42353 1.33684C4.20469 0.752632 4.00148 0.5 3.43874 0.5H1.25032C0.625053 0.5 0.5 0.8 0.5 1.13158C0.5 1.71579 1.23469 4.62105 3.95459 8.45789C5.76785 11.0789 8.31581 12.5 10.6293 12.5C12.0205 12.5 12.1924 12.1842 12.1924 11.6474V9.65789C12.1924 9.02632 12.3175 8.9 12.7708 8.9C13.0991 8.9 13.6462 9.05789 14.9436 10.3211C16.4286 11.8211 16.6787 12.5 17.5072 12.5H19.6956C20.3209 12.5 20.6335 12.1842 20.4459 11.5684C20.2427 10.9526 19.5393 10.0526 18.6014 8.97895C18.0856 8.36316 17.3196 7.71579 17.1008 7.38421C16.7725 6.95789 16.8663 6.76842 17.1008 6.40526C17.1008 6.38947 19.7738 2.6 20.0395 1.30526Z" fill="#A6A6A6"/>
</svg>
